<?xml version="1.0" encoding="utf-8"?>
<!-- Generator: Adobe Illustrator 26.0.1, SVG Export Plug-In . SVG Version: 6.00 Build 0)  -->
<svg version="1.1" id="Capa_1" xmlns="http://www.w3.org/2000/svg" xmlns:xlink="http://www.w3.org/1999/xlink" x="0px" y="0px"
	 viewBox="0 0 480 312" style="enable-background:new 0 0 480 312;" xml:space="preserve">
<style type="text/css">
	.st0{fill:#717578;}
</style>
<g>
	<g>
		<path class="st0" d="M54.6,188v-28.6c0-0.3,0.1-0.5,0.3-0.7s0.4-0.3,0.7-0.3h5.9c0.3,0,0.5,0.1,0.7,0.3s0.3,0.4,0.3,0.7V188
			c0,0.3-0.1,0.5-0.3,0.7s-0.4,0.3-0.7,0.3h-5.9c-0.3,0-0.5-0.1-0.7-0.3C54.7,188.4,54.6,188.2,54.6,188z"/>
	</g>
	<g>
		<path class="st0" d="M84.7,172.7V188c0,0.3-0.1,0.5-0.3,0.7c-0.2,0.2-0.4,0.3-0.7,0.3h-5.9c-0.3,0-0.5-0.1-0.7-0.3
			s-0.3-0.4-0.3-0.7v-28.6c0-0.3,0.1-0.5,0.3-0.7c0.2-0.2,0.4-0.3,0.7-0.3h4.8c0.7,0,1.2,0.2,1.5,0.7l12.6,15.7
			c0.1,0.1,0.1,0.1,0.2,0.1s0.1,0,0.2-0.1s0.1-0.1,0.1-0.2v-15.3c0-0.3,0.1-0.5,0.3-0.7c0.2-0.2,0.4-0.3,0.7-0.3h5.9
			c0.3,0,0.5,0.1,0.7,0.3s0.3,0.4,0.3,0.7V188c0,0.3-0.1,0.5-0.3,0.7c-0.2,0.2-0.4,0.3-0.7,0.3h-4.7c-0.7,0-1.2-0.2-1.5-0.7
			l-12.6-15.6c-0.1-0.1-0.1-0.1-0.2-0.1s-0.1,0-0.2,0.1C84.7,172.5,84.7,172.6,84.7,172.7z"/>
	</g>
	<g>
		<path class="st0" d="M154.9,181.9c1.4,0,2.7-0.3,3.9-0.9c1.2-0.6,2.2-1.5,2.9-2.6c0.3-0.5,0.8-0.7,1.4-0.4l5.4,2.4
			c0.2,0.1,0.4,0.2,0.4,0.5c0.1,0.2,0.1,0.5-0.1,0.7c-1.4,2.4-3.4,4.4-5.8,5.8c-2.5,1.4-5.2,2.2-8.2,2.2c-4.4,0-8.2-1.6-11.4-4.7
			c-3.2-3.1-4.8-6.8-4.8-11.2s1.6-8.1,4.8-11.2c3.2-3.1,7-4.7,11.4-4.7c2.9,0,5.6,0.7,8.1,2.1c2.5,1.4,4.4,3.3,5.9,5.7
			c0.1,0.2,0.2,0.4,0.1,0.7c-0.1,0.3-0.2,0.4-0.4,0.5l-5.4,2.4c-0.6,0.3-1,0.2-1.4-0.4c-0.8-1.1-1.7-1.9-2.9-2.6
			c-1.2-0.6-2.5-1-3.9-1c-2.3,0-4.2,0.8-5.9,2.4c-1.6,1.6-2.4,3.6-2.4,5.9c0,2.3,0.8,4.2,2.4,5.9
			C150.7,181.1,152.6,181.9,154.9,181.9z"/>
	</g>
	<g>
		<path class="st0" d="M196.6,189.5c-4.4,0-8.2-1.6-11.4-4.7c-3.2-3.1-4.8-6.8-4.8-11.2s1.6-8.1,4.8-11.2c3.2-3.1,7-4.7,11.4-4.7
			c4.5,0,8.3,1.6,11.4,4.7c3.2,3.1,4.8,6.8,4.8,11.2s-1.6,8.1-4.8,11.2C204.9,187.9,201.1,189.5,196.6,189.5z M196.6,165.4
			c-2.3,0-4.2,0.8-5.9,2.4c-1.6,1.6-2.4,3.6-2.4,5.9c0,2.3,0.8,4.2,2.4,5.9c1.6,1.6,3.6,2.4,5.9,2.4c2.3,0,4.3-0.8,5.9-2.4
			c1.6-1.6,2.4-3.6,2.4-5.9s-0.8-4.3-2.4-5.9C200.9,166.2,199,165.4,196.6,165.4z"/>
	</g>
	<g>
		<path class="st0" d="M233.6,174v14c0,0.3-0.1,0.5-0.3,0.7s-0.4,0.3-0.7,0.3h-5.9c-0.3,0-0.5-0.1-0.7-0.3s-0.3-0.4-0.3-0.7v-28.6
			c0-0.3,0.1-0.5,0.3-0.7s0.4-0.3,0.7-0.3h6c0.6,0,1.1,0.3,1.4,0.8l8,16c0.1,0.2,0.2,0.2,0.4,0.2s0.3-0.1,0.4-0.2l8.1-16
			c0.3-0.5,0.8-0.8,1.4-0.8h6c0.3,0,0.5,0.1,0.7,0.3s0.3,0.4,0.3,0.7V188c0,0.3-0.1,0.5-0.3,0.7c-0.2,0.2-0.4,0.3-0.7,0.3h-5.9
			c-0.3,0-0.5-0.1-0.7-0.3s-0.3-0.4-0.3-0.7v-14c0-0.1-0.1-0.2-0.2-0.2c-0.1,0-0.2,0-0.2,0.1l-5.6,11.1c-0.3,0.5-0.8,0.8-1.4,0.8
			h-3.2c-0.6,0-1.1-0.3-1.4-0.8l-5.5-11c-0.1-0.1-0.1-0.1-0.2-0.1C233.7,173.9,233.6,173.9,233.6,174z"/>
	</g>
	<g>
		<path class="st0" d="M280.6,188.9h-5.9c-0.3,0-0.5-0.1-0.7-0.3s-0.3-0.4-0.3-0.7v-28.6c0-0.3,0.1-0.5,0.3-0.7
			c0.2-0.2,0.4-0.3,0.7-0.3h12.5c3.8,0,6.8,1.1,8.9,3.4c2.1,2.3,3.1,5,3.1,8.3c0,3.4-1,6.3-3.1,8.5c-2.1,2.3-5,3.4-8.9,3.4h-4.8
			c-0.2,0-0.4,0.1-0.5,0.2c-0.2,0.2-0.2,0.3-0.2,0.5v5.2c0,0.3-0.1,0.5-0.3,0.7C281,188.8,280.8,188.9,280.6,188.9z M291.2,170.1
			c0-1.3-0.4-2.4-1.1-3.3c-0.7-0.9-1.9-1.3-3.4-1.3h-4.4c-0.2,0-0.4,0.1-0.5,0.2c-0.2,0.2-0.2,0.3-0.2,0.5v7.8
			c0,0.2,0.1,0.4,0.2,0.5c0.2,0.2,0.3,0.2,0.5,0.2h4.4C289.7,174.9,291.2,173.3,291.2,170.1z"/>
	</g>
	<g>
		<path class="st0" d="M307.4,188l11.7-28.8c0.2-0.6,0.6-0.9,1.3-0.9h5.9c0.7,0,1.1,0.3,1.3,0.9l11.6,28.8c0.1,0.2,0.1,0.4-0.1,0.6
			c-0.1,0.2-0.3,0.3-0.5,0.3H332c-0.6,0-1-0.3-1.2-0.9l-1.1-2.8c-0.2-0.5-0.5-0.8-1.1-0.8H318c-0.5,0-0.9,0.2-1.1,0.7l-1.1,2.9
			c-0.2,0.6-0.6,0.9-1.3,0.9H308c-0.2,0-0.4-0.1-0.5-0.3C307.3,188.4,307.3,188.2,307.4,188z M320.7,177.4h5.1
			c0.2,0,0.3-0.1,0.4-0.2c0.1-0.2,0.1-0.3,0.1-0.5l-2.8-7.5c0-0.1-0.1-0.2-0.3-0.2c-0.1,0-0.2,0.1-0.3,0.2l-2.8,7.5
			c-0.1,0.2,0,0.4,0.1,0.5C320.4,177.3,320.5,177.4,320.7,177.4z"/>
	</g>
	<g>
		<path class="st0" d="M359.3,172.7V188c0,0.3-0.1,0.5-0.3,0.7c-0.2,0.2-0.4,0.3-0.7,0.3h-5.9c-0.3,0-0.5-0.1-0.7-0.3
			s-0.3-0.4-0.3-0.7v-28.6c0-0.3,0.1-0.5,0.3-0.7c0.2-0.2,0.4-0.3,0.7-0.3h4.8c0.7,0,1.2,0.2,1.5,0.7l12.6,15.7
			c0.1,0.1,0.1,0.1,0.2,0.1s0.1,0,0.2-0.1s0.1-0.1,0.1-0.2v-15.3c0-0.3,0.1-0.5,0.3-0.7c0.2-0.2,0.4-0.3,0.7-0.3h5.9
			c0.3,0,0.5,0.1,0.7,0.3s0.3,0.4,0.3,0.7V188c0,0.3-0.1,0.5-0.3,0.7c-0.2,0.2-0.4,0.3-0.7,0.3H374c-0.7,0-1.2-0.2-1.5-0.7
			l-12.6-15.6c-0.1-0.1-0.1-0.1-0.2-0.1s-0.1,0-0.2,0.1C359.3,172.5,359.3,172.6,359.3,172.7z"/>
	</g>
	<g>
		<path class="st0" d="M392.7,158.4h7.3c0.6,0,1.1,0.3,1.4,0.9l5.9,9.6c0.1,0.1,0.2,0.2,0.4,0.2c0.2,0,0.3-0.1,0.4-0.2l5.9-9.6
			c0.3-0.5,0.8-0.8,1.5-0.8h7.5c0.2,0,0.4,0.1,0.5,0.3s0.1,0.4,0,0.6l-11.1,17.9c-0.4,0.4-0.6,0.9-0.6,1.4v9.4
			c0,0.3-0.1,0.5-0.3,0.7c-0.2,0.2-0.4,0.3-0.7,0.3h-5.9c-0.3,0-0.5-0.1-0.7-0.3s-0.3-0.4-0.3-0.7v-9.5c0-0.5-0.1-1-0.4-1.4
			l-11.1-17.9c-0.1-0.2-0.1-0.4,0-0.5C392.3,158.5,392.5,158.4,392.7,158.4z"/>
	</g>
	<g>
		<path class="st0" d="M113.6,235.8H93.1c-0.3,0-0.5-0.1-0.7-0.3s-0.3-0.4-0.3-0.7v-28.6c0-0.3,0.1-0.5,0.3-0.7
			c0.2-0.2,0.4-0.3,0.7-0.3H99c0.3,0,0.5,0.1,0.7,0.3s0.3,0.4,0.3,0.7v21.2c0,0.2,0.1,0.4,0.2,0.5c0.2,0.2,0.3,0.2,0.5,0.2h12.9
			c0.3,0,0.5,0.1,0.7,0.3s0.3,0.4,0.3,0.7v5.7c0,0.3-0.1,0.5-0.3,0.7C114.1,235.7,113.9,235.8,113.6,235.8z"/>
	</g>
	<g>
		<path class="st0" d="M149.7,235.8h-21.5c-0.3,0-0.5-0.1-0.7-0.3s-0.3-0.4-0.3-0.7v-28.6c0-0.3,0.1-0.5,0.3-0.7
			c0.2-0.2,0.4-0.3,0.7-0.3h21.5c0.3,0,0.5,0.1,0.7,0.3s0.3,0.4,0.3,0.7v5.7c0,0.3-0.1,0.5-0.3,0.7s-0.4,0.3-0.7,0.3h-13.9
			c-0.2,0-0.4,0.1-0.5,0.2c-0.2,0.2-0.2,0.3-0.2,0.5v2.8c0,0.2,0.1,0.4,0.2,0.5c0.2,0.2,0.3,0.2,0.5,0.2h11.1c0.3,0,0.5,0.1,0.7,0.3
			s0.3,0.4,0.3,0.7v5.2c0,0.3-0.1,0.5-0.3,0.7s-0.4,0.3-0.7,0.3h-11.1c-0.2,0-0.4,0.1-0.5,0.2c-0.2,0.2-0.2,0.3-0.2,0.5v2.3
			c0,0.2,0.1,0.4,0.2,0.5c0.2,0.2,0.3,0.2,0.5,0.2h13.9c0.3,0,0.5,0.1,0.7,0.3s0.3,0.4,0.3,0.7v5.7c0,0.3-0.1,0.5-0.3,0.7
			C150.2,235.7,149.9,235.8,149.7,235.8z"/>
	</g>
	<g>
		<path class="st0" d="M162.3,235l11.7-28.8c0.2-0.6,0.6-0.9,1.3-0.9h5.9c0.7,0,1.1,0.3,1.3,0.9L194,235c0.1,0.2,0.1,0.4-0.1,0.6
			c-0.1,0.2-0.3,0.3-0.5,0.3h-6.6c-0.6,0-1-0.3-1.2-0.9l-1.1-2.8c-0.2-0.5-0.5-0.8-1.1-0.8h-10.5c-0.5,0-0.9,0.2-1.1,0.7l-1.1,2.9
			c-0.2,0.6-0.6,0.9-1.3,0.9h-6.6c-0.2,0-0.4-0.1-0.5-0.3C162.3,235.4,162.2,235.2,162.3,235z M175.6,224.3h5.1
			c0.2,0,0.3-0.1,0.4-0.2c0.1-0.2,0.1-0.3,0.1-0.5l-2.8-7.5c0-0.1-0.1-0.2-0.3-0.2c-0.1,0-0.2,0.1-0.3,0.2l-2.8,7.5
			c-0.1,0.2,0,0.4,0.1,0.5C175.3,224.2,175.4,224.3,175.6,224.3z"/>
	</g>
	<g>
		<path class="st0" d="M206.4,234.9v-28.6c0-0.3,0.1-0.5,0.3-0.7s0.4-0.3,0.7-0.3h14c3.7,0,6.6,1,8.5,3.1s2.9,4.8,2.9,8
			c0,2.1-0.5,4-1.3,5.7s-2.2,3.1-4,4c-0.4,0.2-0.5,0.6-0.2,1l5.6,7.8c0.1,0.2,0.1,0.4,0,0.5c-0.1,0.2-0.2,0.3-0.4,0.3H225
			c-0.6,0-1.1-0.3-1.5-0.8l-4.8-6.8c-0.3-0.4-0.7-0.6-1.3-0.6H215c-0.2,0-0.4,0.1-0.5,0.2c-0.2,0.2-0.2,0.3-0.2,0.5v6.5
			c0,0.3-0.1,0.5-0.3,0.7s-0.4,0.3-0.7,0.3h-5.9c-0.3,0-0.5-0.1-0.7-0.3C206.5,235.4,206.4,235.1,206.4,234.9z M225.2,216.5
			c0-2.7-1.4-4.1-4.3-4.1H215c-0.2,0-0.4,0.1-0.5,0.2c-0.2,0.2-0.2,0.3-0.2,0.5v6.6c0,0.2,0.1,0.4,0.2,0.5c0.2,0.2,0.3,0.2,0.5,0.2
			h5.9c1.5,0,2.5-0.4,3.2-1.1C224.8,218.7,225.2,217.7,225.2,216.5z"/>
	</g>
	<g>
		<path class="st0" d="M253.9,219.6v15.3c0,0.3-0.1,0.5-0.3,0.7s-0.4,0.3-0.7,0.3H247c-0.3,0-0.5-0.1-0.7-0.3s-0.3-0.4-0.3-0.7
			v-28.6c0-0.3,0.1-0.5,0.3-0.7s0.4-0.3,0.7-0.3h4.8c0.7,0,1.2,0.2,1.5,0.7l12.6,15.7c0.1,0.1,0.1,0.1,0.2,0.1s0.1,0,0.2-0.1
			s0.1-0.1,0.1-0.2v-15.3c0-0.3,0.1-0.5,0.3-0.7c0.2-0.2,0.4-0.3,0.7-0.3h5.9c0.3,0,0.5,0.1,0.7,0.3s0.3,0.4,0.3,0.7v28.6
			c0,0.3-0.1,0.5-0.3,0.7c-0.2,0.2-0.4,0.3-0.7,0.3h-4.7c-0.7,0-1.2-0.2-1.5-0.7l-12.6-15.6c-0.1-0.1-0.1-0.1-0.2-0.1
			c-0.1,0-0.1,0-0.2,0.1C254,219.4,253.9,219.5,253.9,219.6z"/>
	</g>
	<g>
		<path class="st0" d="M288.6,234.9v-28.6c0-0.3,0.1-0.5,0.3-0.7c0.2-0.2,0.4-0.3,0.7-0.3h5.9c0.3,0,0.5,0.1,0.7,0.3
			s0.3,0.4,0.3,0.7v28.6c0,0.3-0.1,0.5-0.3,0.7c-0.2,0.2-0.4,0.3-0.7,0.3h-5.9c-0.3,0-0.5-0.1-0.7-0.3
			C288.7,235.4,288.6,235.1,288.6,234.9z"/>
	</g>
	<g>
		<path class="st0" d="M318.7,219.6v15.3c0,0.3-0.1,0.5-0.3,0.7c-0.2,0.2-0.4,0.3-0.7,0.3h-5.9c-0.3,0-0.5-0.1-0.7-0.3
			s-0.3-0.4-0.3-0.7v-28.6c0-0.3,0.1-0.5,0.3-0.7c0.2-0.2,0.4-0.3,0.7-0.3h4.8c0.7,0,1.2,0.2,1.5,0.7l12.6,15.7
			c0.1,0.1,0.1,0.1,0.2,0.1s0.1,0,0.2-0.1s0.1-0.1,0.1-0.2v-15.3c0-0.3,0.1-0.5,0.3-0.7c0.2-0.2,0.4-0.3,0.7-0.3h5.9
			c0.3,0,0.5,0.1,0.7,0.3s0.3,0.4,0.3,0.7v28.6c0,0.3-0.1,0.5-0.3,0.7c-0.2,0.2-0.4,0.3-0.7,0.3h-4.7c-0.7,0-1.2-0.2-1.5-0.7
			l-12.6-15.6c-0.1-0.1-0.1-0.1-0.2-0.1s-0.1,0-0.2,0.1C318.8,219.4,318.7,219.5,318.7,219.6z"/>
	</g>
	<g>
		<path class="st0" d="M374.3,224.5h-6.1c-0.3,0-0.5-0.1-0.7-0.3s-0.3-0.4-0.3-0.7V219c0-0.3,0.1-0.5,0.3-0.7
			c0.2-0.2,0.4-0.3,0.7-0.3H381c0.3,0,0.5,0.1,0.7,0.3s0.3,0.4,0.3,0.7v15.9c0,0.3-0.1,0.5-0.3,0.7c-0.2,0.2-0.4,0.3-0.7,0.3h-4.3
			c-0.3,0-0.5-0.1-0.7-0.3s-0.3-0.4-0.3-0.7v-1.1c0-0.1-0.1-0.2-0.2-0.3c-0.1,0-0.2,0-0.3,0.1c-0.8,0.9-1.8,1.6-3.1,2.1
			c-1.3,0.5-2.7,0.7-4.1,0.7c-4.4,0-8.2-1.6-11.4-4.7c-3.2-3.1-4.8-6.8-4.8-11.2s1.6-8.1,4.8-11.2c3.2-3.1,7-4.7,11.4-4.7
			c2.4,0,4.7,0.5,6.8,1.5c2.2,1,4,2.4,5.5,4.1c0.2,0.2,0.2,0.4,0.2,0.7c0,0.2-0.1,0.4-0.4,0.6l-4.8,3.2c-0.5,0.3-1,0.3-1.4-0.2
			c-1.6-1.6-3.6-2.4-5.9-2.4s-4.3,0.8-5.9,2.4c-1.6,1.6-2.4,3.6-2.4,5.9c0,2.3,0.8,4.2,2.4,5.9c1.6,1.6,3.6,2.4,5.9,2.4
			c2.6,0,4.7-1.1,6.3-3.2c0.2-0.2,0.2-0.4,0.2-0.7v-0.1C374.7,224.7,374.6,224.5,374.3,224.5z"/>
	</g>
</g>
<g>
	<g>
		<g>
			<g>
				<path class="st0" d="M261.4,102.3c-2.4,0-4.4-0.8-6.1-2.5c-1.7-1.7-2.5-3.7-2.5-6.1s0.8-4.5,2.5-6.2c1.7-1.7,3.7-2.6,6.1-2.6
					s4.5,0.9,6.2,2.6s2.6,3.8,2.6,6.2c0,2.4-0.9,4.4-2.6,6.1S263.8,102.3,261.4,102.3z M261.4,90.8c-0.7,0-1.4,0.3-1.9,0.8
					c-0.5,0.6-0.8,1.2-0.8,2s0.3,1.4,0.8,2c0.5,0.5,1.2,0.8,1.9,0.8c0.8,0,1.4-0.3,2-0.8s0.8-1.2,0.8-1.9c0-0.8-0.3-1.4-0.8-2
					C262.8,91.1,262.1,90.8,261.4,90.8z"/>
			</g>
			<g>
				<path class="st0" d="M254.6,105.4h13.6c0.2,0,0.4,0.1,0.6,0.2c0.2,0.2,0.2,0.3,0.2,0.6v4.4c0,0.2-0.1,0.4-0.2,0.6
					c-0.2,0.2-0.3,0.2-0.6,0.2h-13.6c-0.2,0-0.4-0.1-0.6-0.2c-0.2-0.2-0.2-0.3-0.2-0.6v-4.4c0-0.2,0.1-0.4,0.2-0.6
					C254.2,105.5,254.4,105.4,254.6,105.4z"/>
			</g>
		</g>
		<g>
			<path class="st0" d="M211.5,61.3V36.9c0-0.2,0.1-0.4,0.2-0.6c0.2-0.2,0.3-0.2,0.6-0.2h5.1c0.2,0,0.4,0.1,0.6,0.2
				c0.2,0.2,0.2,0.3,0.2,0.6v24.4c0,0.2-0.1,0.4-0.2,0.6c-0.2,0.2-0.3,0.2-0.6,0.2h-5.1c-0.2,0-0.4-0.1-0.6-0.2
				C211.6,61.7,211.5,61.5,211.5,61.3z"/>
		</g>
		<g>
			<path class="st0" d="M255.6,48.3v13c0,0.2-0.1,0.4-0.2,0.6c-0.2,0.2-0.3,0.2-0.6,0.2h-5.1c-0.2,0-0.4-0.1-0.6-0.2
				c-0.2-0.2-0.2-0.3-0.2-0.6V36.9c0-0.2,0.1-0.4,0.2-0.6c0.2-0.2,0.3-0.2,0.6-0.2h4.1c0.6,0,1,0.2,1.3,0.6l10.7,13.4
				c0,0.1,0.1,0.1,0.2,0.1s0.1,0,0.2-0.1c0-0.1,0.1-0.1,0.1-0.2v-13c0-0.2,0.1-0.4,0.2-0.6c0.2-0.2,0.3-0.2,0.6-0.2h5
				c0.2,0,0.4,0.1,0.6,0.2c0.2,0.2,0.2,0.3,0.2,0.6v24.4c0,0.2-0.1,0.4-0.2,0.6c-0.2,0.2-0.3,0.2-0.6,0.2h-4c-0.6,0-1-0.2-1.3-0.6
				L256,48.1c0-0.1-0.1-0.1-0.2-0.1c-0.1,0-0.1,0-0.2,0.1C255.6,48.1,255.6,48.2,255.6,48.3z"/>
		</g>
		<g>
			<path class="st0" d="M217.3,105.4c1.2,0,2.3-0.3,3.3-0.8s1.9-1.3,2.5-2.2c0.3-0.5,0.7-0.6,1.2-0.4l4.6,2c0.2,0.1,0.3,0.2,0.4,0.4
				c0.1,0.2,0,0.4-0.1,0.6c-1.2,2.1-2.9,3.7-5,4.9c-2.1,1.2-4.4,1.8-6.9,1.8c-3.8,0-7-1.3-9.7-4c-2.7-2.6-4.1-5.8-4.1-9.5
				s1.4-6.9,4.1-9.5c2.7-2.6,6-4,9.7-4c2.5,0,4.8,0.6,6.9,1.8c2.1,1.2,3.8,2.8,5,4.9c0.1,0.2,0.1,0.3,0.1,0.6
				c-0.1,0.2-0.2,0.4-0.4,0.5l-4.6,2c-0.5,0.3-0.9,0.2-1.2-0.3c-0.6-0.9-1.5-1.6-2.5-2.2c-1-0.5-2.1-0.8-3.3-0.8c-2,0-3.6,0.7-5,2.1
				s-2.1,3-2.1,5s0.7,3.6,2.1,5C213.7,104.7,215.4,105.4,217.3,105.4z"/>
		</g>
	</g>
	<g>
		<path class="st0" d="M293,130.5H185c-1.4,0-2.5-1.1-2.5-2.5V20c0-1.4,1.1-2.5,2.5-2.5h108c1.4,0,2.5,1.1,2.5,2.5v108
			C295.5,129.4,294.4,130.5,293,130.5z M187.4,125.6h103.1V22.4H187.4V125.6z"/>
	</g>
</g>
<g>
	<rect x="184.3" y="261.4" class="st0" width="109.3" height="0.8"/>
</g>
<g>
	<path class="st0" d="M155,295.6h-8.2c-0.1,0-0.2,0-0.3-0.1c-0.1-0.1-0.1-0.2-0.1-0.3v-11.5c0-0.1,0-0.2,0.1-0.3
		c0.1-0.1,0.2-0.1,0.3-0.1h2.4c0.1,0,0.2,0,0.3,0.1c0.1,0.1,0.1,0.2,0.1,0.3v8.5c0,0.1,0,0.2,0.1,0.2c0.1,0.1,0.1,0.1,0.2,0.1h5.2
		c0.1,0,0.2,0,0.3,0.1c0.1,0.1,0.1,0.2,0.1,0.3v2.3c0,0.1,0,0.2-0.1,0.3C155.2,295.6,155.1,295.6,155,295.6z"/>
	<path class="st0" d="M155.8,295.3l4.7-11.6c0.1-0.2,0.3-0.3,0.5-0.3h2.4c0.3,0,0.4,0.1,0.5,0.3l4.7,11.6c0,0.1,0,0.2,0,0.2
		c0,0.1-0.1,0.1-0.2,0.1h-2.7c-0.3,0-0.4-0.1-0.5-0.3l-0.4-1.1c-0.1-0.2-0.2-0.3-0.4-0.3H160c-0.2,0-0.4,0.1-0.4,0.3l-0.4,1.1
		c-0.1,0.2-0.3,0.3-0.5,0.3H156c-0.1,0-0.2,0-0.2-0.1C155.8,295.4,155.7,295.4,155.8,295.3z M161.1,291h2.1c0.1,0,0.1,0,0.2-0.1
		s0.1-0.1,0-0.2l-1.1-3c0-0.1-0.1-0.1-0.1-0.1s-0.1,0-0.1,0.1l-1.1,3c0,0.1,0,0.1,0,0.2C161,291,161,291,161.1,291z"/>
	<path class="st0" d="M172.7,289.1v6.1c0,0.1,0,0.2-0.1,0.3c-0.1,0.1-0.2,0.1-0.3,0.1h-2.4c-0.1,0-0.2,0-0.3-0.1
		c-0.1-0.1-0.1-0.2-0.1-0.3v-11.5c0-0.1,0-0.2,0.1-0.3c0.1-0.1,0.2-0.1,0.3-0.1h1.9c0.3,0,0.5,0.1,0.6,0.3l5,6.3c0,0,0,0,0.1,0.1
		c0,0,0.1,0,0.1,0c0,0,0-0.1,0-0.1v-6.2c0-0.1,0-0.2,0.1-0.3s0.2-0.1,0.3-0.1h2.4c0.1,0,0.2,0,0.3,0.1c0.1,0.1,0.1,0.2,0.1,0.3v11.5
		c0,0.1,0,0.2-0.1,0.3c-0.1,0.1-0.2,0.1-0.3,0.1h-1.9c-0.3,0-0.5-0.1-0.6-0.3l-5-6.3c0,0,0,0-0.1-0.1
		C172.8,289,172.7,289,172.7,289.1C172.7,289,172.7,289.1,172.7,289.1z"/>
	<path class="st0" d="M191.1,291.1h-2.4c-0.1,0-0.2,0-0.3-0.1s-0.1-0.2-0.1-0.3v-1.9c0-0.1,0-0.2,0.1-0.3c0.1-0.1,0.2-0.1,0.3-0.1
		h5.1c0.1,0,0.2,0,0.3,0.1c0.1,0.1,0.1,0.2,0.1,0.3v6.4c0,0.1,0,0.2-0.1,0.3c-0.1,0.1-0.2,0.1-0.3,0.1h-1.7c-0.1,0-0.2,0-0.3-0.1
		c-0.1-0.1-0.1-0.2-0.1-0.3v-0.5c0-0.1,0-0.1-0.1-0.1c0,0-0.1,0-0.1,0c-0.3,0.4-0.7,0.6-1.3,0.8c-0.5,0.2-1.1,0.3-1.6,0.3
		c-1.8,0-3.3-0.6-4.6-1.9c-1.3-1.2-1.9-2.7-1.9-4.5c0-1.7,0.6-3.2,1.9-4.5c1.3-1.2,2.8-1.9,4.6-1.9c1,0,1.9,0.2,2.7,0.6
		c0.9,0.4,1.6,1,2.2,1.7c0.1,0.1,0.1,0.2,0.1,0.3c0,0.1-0.1,0.2-0.1,0.2l-1.9,1.3c-0.2,0.1-0.4,0.1-0.6-0.1c-0.6-0.6-1.4-1-2.4-1
		c-0.9,0-1.7,0.3-2.4,1s-1,1.4-1,2.4s0.3,1.7,1,2.4c0.6,0.6,1.4,1,2.4,1c1,0,1.9-0.4,2.5-1.3c0.1-0.1,0.1-0.2,0.1-0.3v0
		C191.2,291.1,191.2,291.1,191.1,291.1z"/>
	<path class="st0" d="M203.7,290.1v-6.3c0-0.1,0-0.2,0.1-0.3s0.2-0.1,0.3-0.1h2.4c0.1,0,0.2,0,0.3,0.1s0.1,0.2,0.1,0.3v6.5
		c0,1.6-0.5,3-1.5,4c-1,1-2.4,1.6-4.1,1.6c-1.8,0-3.2-0.5-4.1-1.6c-1-1-1.5-2.4-1.5-4v-6.5c0-0.1,0-0.2,0.1-0.3s0.2-0.1,0.3-0.1h2.4
		c0.1,0,0.2,0,0.3,0.1s0.1,0.2,0.1,0.3v6.3c0,0.9,0.2,1.6,0.6,2s1,0.7,1.9,0.7c0.8,0,1.4-0.2,1.9-0.7S203.7,291,203.7,290.1z"/>
	<path class="st0" d="M207.2,295.3l4.7-11.6c0.1-0.2,0.3-0.3,0.5-0.3h2.4c0.3,0,0.4,0.1,0.5,0.3l4.7,11.6c0,0.1,0,0.2,0,0.2
		c0,0.1-0.1,0.1-0.2,0.1H217c-0.3,0-0.4-0.1-0.5-0.3l-0.4-1.1c-0.1-0.2-0.2-0.3-0.4-0.3h-4.2c-0.2,0-0.4,0.1-0.4,0.3l-0.4,1.1
		c-0.1,0.2-0.3,0.3-0.5,0.3h-2.7c-0.1,0-0.2,0-0.2-0.1C207.2,295.4,207.1,295.4,207.2,295.3z M212.5,291h2.1c0.1,0,0.1,0,0.2-0.1
		s0.1-0.1,0-0.2l-1.1-3c0-0.1-0.1-0.1-0.1-0.1s-0.1,0-0.1,0.1l-1.1,3c0,0.1,0,0.1,0,0.2C212.4,291,212.4,291,212.5,291z"/>
	<path class="st0" d="M228.5,291.1h-2.4c-0.1,0-0.2,0-0.3-0.1s-0.1-0.2-0.1-0.3v-1.9c0-0.1,0-0.2,0.1-0.3c0.1-0.1,0.2-0.1,0.3-0.1
		h5.1c0.1,0,0.2,0,0.3,0.1c0.1,0.1,0.1,0.2,0.1,0.3v6.4c0,0.1,0,0.2-0.1,0.3c-0.1,0.1-0.2,0.1-0.3,0.1h-1.7c-0.1,0-0.2,0-0.3-0.1
		c-0.1-0.1-0.1-0.2-0.1-0.3v-0.5c0-0.1,0-0.1-0.1-0.1c0,0-0.1,0-0.1,0c-0.3,0.4-0.7,0.6-1.3,0.8c-0.5,0.2-1.1,0.3-1.6,0.3
		c-1.8,0-3.3-0.6-4.6-1.9c-1.3-1.2-1.9-2.7-1.9-4.5c0-1.7,0.6-3.2,1.9-4.5c1.3-1.2,2.8-1.9,4.6-1.9c1,0,1.9,0.2,2.7,0.6
		c0.9,0.4,1.6,1,2.2,1.7c0.1,0.1,0.1,0.2,0.1,0.3c0,0.1-0.1,0.2-0.1,0.2l-1.9,1.3c-0.2,0.1-0.4,0.1-0.6-0.1c-0.6-0.6-1.4-1-2.4-1
		c-0.9,0-1.7,0.3-2.4,1s-1,1.4-1,2.4s0.3,1.7,1,2.4c0.6,0.6,1.4,1,2.4,1c1,0,1.9-0.4,2.5-1.3c0.1-0.1,0.1-0.2,0.1-0.3v0
		C228.7,291.1,228.6,291.1,228.5,291.1z"/>
	<path class="st0" d="M242.2,295.6h-8.6c-0.1,0-0.2,0-0.3-0.1c-0.1-0.1-0.1-0.2-0.1-0.3v-11.5c0-0.1,0-0.2,0.1-0.3
		c0.1-0.1,0.2-0.1,0.3-0.1h8.6c0.1,0,0.2,0,0.3,0.1c0.1,0.1,0.1,0.2,0.1,0.3v2.3c0,0.1,0,0.2-0.1,0.3c-0.1,0.1-0.2,0.1-0.3,0.1h-5.6
		c-0.1,0-0.2,0-0.2,0.1c-0.1,0.1-0.1,0.1-0.1,0.2v1.1c0,0.1,0,0.2,0.1,0.2c0.1,0.1,0.1,0.1,0.2,0.1h4.5c0.1,0,0.2,0,0.3,0.1
		c0.1,0.1,0.1,0.2,0.1,0.3v2.1c0,0.1,0,0.2-0.1,0.3c-0.1,0.1-0.2,0.1-0.3,0.1h-4.5c-0.1,0-0.2,0-0.2,0.1c-0.1,0.1-0.1,0.1-0.1,0.2
		v0.9c0,0.1,0,0.2,0.1,0.2c0.1,0.1,0.1,0.1,0.2,0.1h5.6c0.1,0,0.2,0,0.3,0.1c0.1,0.1,0.1,0.2,0.1,0.3v2.3c0,0.1,0,0.2-0.1,0.3
		C242.4,295.6,242.3,295.6,242.2,295.6z"/>
	<path class="st0" d="M248.9,295.9c-1.4,0-2.6-0.3-3.6-0.9c-1-0.6-1.5-1.5-1.6-2.6c0-0.1,0-0.2,0.1-0.3s0.2-0.1,0.3-0.1h2.1
		c0.2,0,0.3,0,0.4,0.1c0.1,0.1,0.2,0.2,0.3,0.3c0.3,0.5,0.9,0.8,2,0.8c0.5,0,0.9-0.1,1.2-0.2c0.2-0.1,0.4-0.3,0.4-0.5
		c0-0.3-0.2-0.5-0.5-0.7s-0.8-0.4-1.6-0.7c-0.5-0.2-0.9-0.3-1.2-0.4c-0.3-0.1-0.7-0.3-1.2-0.6c-0.5-0.2-0.8-0.5-1.1-0.8
		c-0.3-0.3-0.5-0.6-0.7-1c-0.2-0.4-0.3-0.9-0.3-1.3c0-1.2,0.4-2.1,1.3-2.8c0.9-0.7,2-1,3.5-1c1.4,0,2.6,0.3,3.5,1
		c0.9,0.7,1.4,1.6,1.5,2.7c0,0.1,0,0.2-0.1,0.3c-0.1,0.1-0.2,0.1-0.3,0.1H251c-0.3,0-0.4-0.1-0.5-0.4c-0.1-0.3-0.3-0.5-0.6-0.7
		c-0.3-0.2-0.7-0.3-1.2-0.3s-0.9,0.1-1.1,0.2s-0.4,0.4-0.4,0.6s0.1,0.4,0.4,0.6c0.3,0.2,0.8,0.4,1.6,0.7c0.3,0.1,0.6,0.2,0.8,0.3
		c0.2,0.1,0.5,0.2,0.8,0.3c0.4,0.2,0.7,0.3,0.9,0.5c0.2,0.1,0.5,0.3,0.8,0.6c0.3,0.2,0.5,0.5,0.7,0.7c0.2,0.2,0.3,0.5,0.4,0.9
		s0.2,0.7,0.2,1.1c0,1.2-0.5,2.1-1.4,2.7C251.5,295.5,250.3,295.9,248.9,295.9z"/>
	<path class="st0" d="M262.3,295.6h-2.4c-0.1,0-0.2,0-0.3-0.1c-0.1-0.1-0.1-0.2-0.1-0.3v-11.5c0-0.1,0-0.2,0.1-0.3s0.2-0.1,0.3-0.1
		h8.3c0.1,0,0.2,0,0.3,0.1s0.1,0.2,0.1,0.3v2.3c0,0.1,0,0.2-0.1,0.3s-0.2,0.1-0.3,0.1H263c-0.1,0-0.2,0-0.2,0.1
		c-0.1,0.1-0.1,0.1-0.1,0.2v1.5c0,0.1,0,0.2,0.1,0.2c0.1,0.1,0.1,0.1,0.2,0.1h4.3c0.1,0,0.2,0,0.3,0.1s0.1,0.2,0.1,0.3v2.1
		c0,0.1,0,0.2-0.1,0.3s-0.2,0.1-0.3,0.1H263c-0.1,0-0.2,0-0.2,0.1c-0.1,0.1-0.1,0.1-0.1,0.2v3.5c0,0.1,0,0.2-0.1,0.3
		C262.5,295.6,262.4,295.6,262.3,295.6z"/>
	<path class="st0" d="M275.7,295.9c-1.8,0-3.3-0.6-4.6-1.9c-1.3-1.2-1.9-2.7-1.9-4.5c0-1.7,0.6-3.2,1.9-4.5c1.3-1.2,2.8-1.9,4.6-1.9
		c1.8,0,3.3,0.6,4.6,1.9s1.9,2.7,1.9,4.5c0,1.7-0.6,3.2-1.9,4.5C279.1,295.2,277.5,295.9,275.7,295.9z M275.7,286.2
		c-0.9,0-1.7,0.3-2.4,1c-0.6,0.6-1,1.4-1,2.4s0.3,1.7,1,2.4c0.6,0.6,1.4,1,2.4,1c0.9,0,1.7-0.3,2.4-1c0.6-0.6,1-1.4,1-2.4
		c0-0.9-0.3-1.7-1-2.4C277.5,286.5,276.7,286.2,275.7,286.2z"/>
	<path class="st0" d="M283.5,295.2v-11.5c0-0.1,0-0.2,0.1-0.3s0.2-0.1,0.3-0.1h5.6c1.5,0,2.6,0.4,3.4,1.3c0.8,0.8,1.2,1.9,1.2,3.2
		c0,0.8-0.2,1.6-0.5,2.3c-0.4,0.7-0.9,1.2-1.6,1.6c-0.2,0.1-0.2,0.2-0.1,0.4l2.2,3.1c0,0.1,0,0.1,0,0.2c0,0.1-0.1,0.1-0.2,0.1h-3
		c-0.2,0-0.4-0.1-0.6-0.3l-1.9-2.7c-0.1-0.2-0.3-0.3-0.5-0.3h-1c-0.1,0-0.2,0-0.2,0.1c-0.1,0.1-0.1,0.1-0.1,0.2v2.6
		c0,0.1,0,0.2-0.1,0.3c-0.1,0.1-0.2,0.1-0.3,0.1h-2.4c-0.1,0-0.2,0-0.3-0.1C283.6,295.4,283.5,295.3,283.5,295.2z M291.1,287.9
		c0-1.1-0.6-1.6-1.7-1.6H287c-0.1,0-0.2,0-0.2,0.1c-0.1,0.1-0.1,0.1-0.1,0.2v2.6c0,0.1,0,0.2,0.1,0.2c0.1,0.1,0.1,0.1,0.2,0.1h2.4
		c0.6,0,1-0.2,1.3-0.5C290.9,288.7,291.1,288.3,291.1,287.9z"/>
	<path class="st0" d="M298.4,295.3l4.7-11.6c0.1-0.2,0.3-0.3,0.5-0.3h2.4c0.3,0,0.4,0.1,0.5,0.3l4.7,11.6c0,0.1,0,0.2,0,0.2
		c0,0.1-0.1,0.1-0.2,0.1h-2.7c-0.3,0-0.4-0.1-0.5-0.3l-0.4-1.1c-0.1-0.2-0.2-0.3-0.4-0.3h-4.2c-0.2,0-0.4,0.1-0.4,0.3l-0.4,1.1
		c-0.1,0.2-0.3,0.3-0.5,0.3h-2.7c-0.1,0-0.2,0-0.2-0.1C298.4,295.4,298.4,295.4,298.4,295.3z M303.7,291h2.1c0.1,0,0.1,0,0.2-0.1
		s0.1-0.1,0-0.2l-1.1-3c0-0.1-0.1-0.1-0.1-0.1c-0.1,0-0.1,0-0.1,0.1l-1.1,3c0,0.1,0,0.1,0,0.2C303.6,291,303.7,291,303.7,291z"/>
	<path class="st0" d="M320.8,295.6h-8.2c-0.1,0-0.2,0-0.3-0.1c-0.1-0.1-0.1-0.2-0.1-0.3v-11.5c0-0.1,0-0.2,0.1-0.3s0.2-0.1,0.3-0.1
		h2.4c0.1,0,0.2,0,0.3,0.1s0.1,0.2,0.1,0.3v8.5c0,0.1,0,0.2,0.1,0.2c0.1,0.1,0.1,0.1,0.2,0.1h5.2c0.1,0,0.2,0,0.3,0.1
		c0.1,0.1,0.1,0.2,0.1,0.3v2.3c0,0.1,0,0.2-0.1,0.3C321,295.6,320.9,295.6,320.8,295.6z"/>
	<path class="st0" d="M330.9,295.6h-8.2c-0.1,0-0.2,0-0.3-0.1c-0.1-0.1-0.1-0.2-0.1-0.3v-11.5c0-0.1,0-0.2,0.1-0.3s0.2-0.1,0.3-0.1
		h2.4c0.1,0,0.2,0,0.3,0.1s0.1,0.2,0.1,0.3v8.5c0,0.1,0,0.2,0.1,0.2c0.1,0.1,0.1,0.1,0.2,0.1h5.2c0.1,0,0.2,0,0.3,0.1
		c0.1,0.1,0.1,0.2,0.1,0.3v2.3c0,0.1,0,0.2-0.1,0.3C331.1,295.6,331,295.6,330.9,295.6z"/>
</g>
</svg>
